<?xml version="1.0" encoding="utf-8"?>
<!-- Generator: Adobe Illustrator 24.1.3, SVG Export Plug-In . SVG Version: 6.00 Build 0)  -->
<svg version="1.1" id="Layer_1" xmlns="http://www.w3.org/2000/svg" xmlns:xlink="http://www.w3.org/1999/xlink" x="0px" y="0px"
	 viewBox="0 0 841.89 595.28" style="enable-background:new 0 0 841.89 595.28;" xml:space="preserve">
<style type="text/css">
	.st0{clip-path:url(#SVGID_2_);fill:#25314A;}
	.st1{fill:#25314A;}
	.st2{clip-path:url(#SVGID_4_);fill:#25314A;}
	.st3{fill:#EA4863;}
	.st4{clip-path:url(#SVGID_6_);fill:#EA4863;}
</style>
<g>
	<g>
		<defs>
			<rect id="SVGID_1_" x="198.68" y="237.69" width="443.61" height="119.9"/>
		</defs>
		<clipPath id="SVGID_2_">
			<use xlink:href="#SVGID_1_"  style="overflow:visible;"/>
		</clipPath>
		<path class="st0" d="M630.26,357.59h5.37v-17.34h6.66v-4.61h-18.7v4.61h6.66V357.59z M574.85,357.59h14.18v-4.61h-8.81v-4.14h6.69
			v-4.61h-6.69v-3.99h8.38v-4.61h-13.75V357.59z M524.17,352.98v-12.74h2.21c3.62,0,5.99,2.15,5.99,6.32c0,4.21-2.27,6.42-5.99,6.42
			H524.17z M518.79,357.59h7.8c6.91,0,11.33-4.11,11.33-11.02c0-6.91-4.42-10.93-11.33-10.93h-7.8V357.59z M461.94,357.59h5.37
			v-10.22c0-1.38-0.25-3.75-0.25-3.75h0.06c0,0,0.98,2.3,1.84,3.75l6.11,10.22h5.4v-21.95h-5.37v10.25c0,1.38,0.25,3.75,0.25,3.75
			h-0.06c0,0-0.98-2.3-1.84-3.75l-6.08-10.25h-5.43V357.59z M416.07,340.64c0,0,0.49,2.39,0.89,3.78l1.23,4.27h-4.33l1.26-4.27
			c0.4-1.38,0.89-3.78,0.89-3.78H416.07z M420.8,357.59h5.53l-7.46-21.95h-5.65l-7.46,21.95h5.53l1.32-4.61h6.85L420.8,357.59z
			 M357.13,357.59h14.34v-4.61h-8.97v-17.34h-5.37V357.59z M300.28,357.59h5.37v-10.22c0-1.38-0.25-3.75-0.25-3.75h0.06
			c0,0,0.98,2.3,1.84,3.75l6.11,10.22h5.4v-21.95h-5.37v10.25c0,1.38,0.25,3.75,0.25,3.75h-0.06c0,0-0.98-2.3-1.84-3.75l-6.08-10.25
			h-5.43V357.59z M243.42,357.59h5.37v-10.22c0-1.38-0.25-3.75-0.25-3.75h0.06c0,0,0.98,2.3,1.84,3.75l6.11,10.22h5.4v-21.95h-5.37
			v10.25c0,1.38,0.25,3.75,0.25,3.75h-0.06c0,0-0.98-2.3-1.84-3.75l-6.08-10.25h-5.43V357.59z M199.74,357.59h5.37v-21.95h-5.37
			V357.59z"/>
	</g>
	<path class="st1" d="M422.21,308.56h9.61v-70.87h-9.61V308.56z M468.14,237.69v9.01h0.01v61.86h9.61V246.7h22.82v-9.01H468.14z
		 M541.88,237.69v12.56l13.15,32.39h-13.15v0.02h-23.88l-11.42,25.91h11.21l7.01-17.52h33.74l7.11,17.52h11.21l-30.33-70.87H541.88z
		 M600.08,237.69v70.87h42.14v-9.01h-32.53v-61.86H600.08z"/>
	<g>
		<defs>
			<rect id="SVGID_3_" x="198.68" y="237.69" width="443.61" height="119.9"/>
		</defs>
		<clipPath id="SVGID_4_">
			<use xlink:href="#SVGID_3_"  style="overflow:visible;"/>
		</clipPath>
		<path class="st2" d="M327.62,273.12c0-13.11,7.31-35.44,37.24-35.44h24.72v9H371.3v0h-5.74c-23.02,0-27.73,17.42-27.73,26.43
			c0,17.52,13.81,26.43,30.03,26.43h12.11v-30.63h9.61v39.63h-23.12C341.14,308.56,327.62,291.24,327.62,273.12"/>
	</g>
	<rect x="288.48" y="237.69" class="st3" width="9.61" height="70.87"/>
	<g>
		<defs>
			<rect id="SVGID_5_" x="198.68" y="237.69" width="443.61" height="119.9"/>
		</defs>
		<clipPath id="SVGID_6_">
			<use xlink:href="#SVGID_5_"  style="overflow:visible;"/>
		</clipPath>
		<path class="st4" d="M260.65,273.12c0-13.11-7.31-35.44-37.24-35.44h-24.73v9h18.29v0h5.74c23.02,0,27.73,17.42,27.73,26.43
			c0,17.52-13.81,26.43-30.03,26.43h-12.11v-30.63h-9.61v39.63h23.12C247.13,308.56,260.65,291.24,260.65,273.12"/>
	</g>
</g>
</svg>
